# xmcd
#
# Track frame offsets: 
#        150
#        13011
#        29101
#        47051
#        66009
#        80291
#        101109
#        117125
#
# Disc length: 1759 seconds
#
# Revision: 0
# Processed by: cddbd v1.5.2PL0 Copyright (c) Steve Scherf et al.
# Submitted via: ExactAudioCopy v0.99pb4
#
DISCID=6406dd08
DTITLE=Michael Martin Murphey - What's Forever For
DYEAR=1989
DGENRE=Country
TTITLE0=What's Forever For
TTITLE1=Don't Count the Rainy Days
TTITLE2=Radio Land
TTITLE3=Love Affairs
TTITLE4=The Two-Step is Easy
TTITLE5=Disenchanted
TTITLE6=The Heart Never Lies
TTITLE7=Maybe This Time
EXTD=
EXTT0=
EXTT1=
EXTT2=
EXTT3=
EXTT4=
EXTT5=
EXTT6=
EXTT7=
PLAYORDER=
